<svg width="128" height="128" viewBox="0 0 128 128" fill="none" xmlns="http://www.w3.org/2000/svg">
<rect width="128" height="128" rx="25" fill="#09090B"/>
<path fill-rule="evenodd" clip-rule="evenodd" d="M92.2843 92.2843C107.905 76.6633 107.905 51.3367 92.2843 35.7157C76.6633 20.0948 51.3367 20.0948 35.7157 35.7157C20.0948 51.3367 20.0948 76.6633 35.7157 92.2843C51.3367 107.905 76.6633 107.905 92.2843 92.2843ZM86.6274 41.8251C99.1242 54.3219 99.1242 74.5832 86.6274 87.08C74.1306 99.5767 53.8694 99.5767 41.3726 87.08C28.8758 74.5832 28.8758 54.3219 41.3726 41.8251C53.3034 29.8943 72.3113 29.354 84.8832 40.2041C75.4537 32.252 61.342 32.7169 52.46 41.5989C43.0874 50.9714 43.0874 66.1674 52.46 75.54C61.8326 84.9126 77.0286 84.9126 86.4011 75.54C95.7387 66.2024 95.7736 51.0849 86.5058 41.7042C86.5296 41.7277 86.5533 41.7513 86.577 41.7749C86.5938 41.7916 86.6106 41.8084 86.6274 41.8251Z" fill="#FAFAFA"/>
</svg>
