<svg width="128" height="128" viewBox="0 0 128 128" fill="none" xmlns="http://www.w3.org/2000/svg">
<rect width="128" height="128" rx="25" fill="#09090B"/>
<path d="M75.1058 75.1838H83.9964L57.3321 29L24 86.7329H32.8905L37.3285 79.0462L37.3212 79.0335H37.3358L43.9964 67.497L43.9891 67.4844H44.0037L50.6642 55.9479L50.6569 55.9353H50.6715L57.3321 44.3988L57.3248 44.3862H57.3394L57.3321 44.3988L63.9927 55.9353H64.0073L64 55.9479L70.6606 67.4844H70.6752L70.6679 67.497L75.1058 75.1838Z" fill="#FAFAFA"/>
<path d="M57.3321 52.0982L30.6679 98.282H97.3321L92.8869 90.5826H84.0109L84.0036 90.5953L83.9964 90.5826H70.6752L70.6679 90.5953L70.6606 90.5826H57.3394L57.3321 90.5953L57.3248 90.5826H44.0036L43.9964 90.5953L43.9891 90.5826H44.0036L50.6642 79.0461L50.6569 79.0335H50.6715L57.3321 67.497L57.3248 67.4844H57.3394L61.7774 59.7976L57.3321 52.0982Z" fill="#FAFAFA"/>
<path d="M50.6715 86.7329H104L70.6679 29L66.2226 36.6994L70.6606 44.3862H70.6752L70.6679 44.3988L77.3285 55.9353H77.3431L77.3358 55.9479L83.9963 67.4844H84.0109L84.0036 67.497L90.6642 79.0335H90.6788L90.6715 79.0461L90.6642 79.0335H77.3431L77.3358 79.0462L77.3285 79.0335H64.0073L64 79.0461L63.9927 79.0335H55.1168L50.6715 86.7329Z" fill="#FAFAFA"/>
</svg>
