<svg width="116" height="100" viewBox="0 0 116 100" fill="none" xmlns="http://www.w3.org/2000/svg">
<path d="M73.7649 66.6606H86.5973L48.1108 0L0 83.3303H12.8323L19.238 72.2354L19.2275 72.2172H19.2485L28.8623 55.5657L28.8517 55.5475H28.8728L38.4865 38.896L38.476 38.8778H38.497L48.1108 22.2263L48.1003 22.2081H48.1213L48.1108 22.2263L57.7245 38.8778H57.7455L57.735 38.896L67.3488 55.5475H67.3698L67.3593 55.5657L73.7649 66.6606Z" fill="#27272A"/>
<path d="M48.1108 33.3394L9.62427 100H105.846L99.4296 88.8869H86.6183L86.6078 88.9051L86.5973 88.8869H67.3698L67.3593 88.9051L67.3488 88.8869H48.1213L48.1108 88.9051L48.1003 88.8869H28.8728L28.8623 88.9051L28.8517 88.8869H28.8728L38.4865 72.2354L38.476 72.2172H38.497L48.1108 55.5657L48.1002 55.5475H48.1213L54.5269 44.4525L48.1108 33.3394Z" fill="#27272A"/>
<path d="M38.497 83.3303H115.47L67.3593 8.47865e-06L60.9431 11.1131L67.3488 22.2081H67.3698L67.3593 22.2263L76.973 38.8778H76.9941L76.9835 38.896L86.5973 55.5475H86.6183L86.6078 55.5657L96.2215 72.2172H96.2425L96.232 72.2354L96.2215 72.2172H76.9941L76.9835 72.2354L76.973 72.2172H57.7455L57.735 72.2354L57.7245 72.2172H44.9132L38.497 83.3303Z" fill="#27272A"/>
</svg>
