<svg width="100" height="100" viewBox="0 0 100 100" fill="none" xmlns="http://www.w3.org/2000/svg">
<path fill-rule="evenodd" clip-rule="evenodd" d="M85.3553 85.3553C104.882 65.8291 104.882 34.1709 85.3553 14.6447C65.8291 -4.88155 34.1709 -4.88155 14.6447 14.6447C-4.88155 34.1709 -4.88155 65.8291 14.6447 85.3553C34.1709 104.882 65.8291 104.882 85.3553 85.3553ZM78.2843 22.2814C93.9052 37.9024 93.9052 63.229 78.2843 78.85C62.6633 94.4709 37.3367 94.4709 21.7157 78.85C6.09476 63.229 6.09476 37.9024 21.7157 22.2814C36.6292 7.36791 60.3892 6.69249 76.104 20.2552C64.3171 10.3149 46.6775 10.8961 35.575 21.9986C23.8593 33.7143 23.8593 52.7092 35.575 64.425C47.2908 76.1407 66.2857 76.1407 78.0014 64.425C89.6734 52.753 89.717 33.8562 78.1323 22.1302C78.162 22.1596 78.1917 22.1891 78.2213 22.2186C78.2423 22.2395 78.2633 22.2604 78.2843 22.2814Z" fill="#27272A"/>
</svg>
